<svg width="20" height="21" viewBox="0 0 20 21" fill="none" xmlns="http://www.w3.org/2000/svg">
<g clip-path="url(#clip0_4890_702)">
<path d="M17.261 7.27344L17.0555 7.74484C16.9052 8.08994 16.4278 8.08994 16.2774 7.74484L16.072 7.27344C15.7058 6.4329 15.0461 5.76369 14.2229 5.39758L13.5898 5.11603C13.2476 4.96379 13.2476 4.46569 13.5898 4.31344L14.1875 4.04763C15.0318 3.6721 15.7033 2.97812 16.0633 2.10904L16.2743 1.59962C16.4213 1.24458 16.9117 1.24458 17.0587 1.59962L17.2697 2.10904C17.6297 2.97812 18.3012 3.6721 19.1455 4.04763L19.7431 4.31344C20.0854 4.46569 20.0854 4.96379 19.7431 5.11603L19.1101 5.39758C18.2869 5.76369 17.6273 6.4329 17.261 7.27344ZM1.6665 3.83334C1.6665 3.37311 2.0396 3.00001 2.49984 3.00001H11.6665V4.66668H3.75417L9.99984 10.2183L13.6649 6.9605L14.7723 8.20619L9.99984 12.4483L3.33317 6.52238V16.3333H16.6665V9.66668H18.3332V17.1667C18.3332 17.6269 17.9601 18 17.4998 18H2.49984C2.0396 18 1.6665 17.6269 1.6665 17.1667V3.83334Z" fill="black"/>
</g>
<defs>
<clipPath id="clip0_4890_702">
<rect width="20" height="20" fill="white" transform="translate(0 0.5)"/>
</clipPath>
</defs>
</svg>
