<svg width="118" height="118" viewBox="0 0 118 118" fill="none" xmlns="http://www.w3.org/2000/svg">
<mask id="mask0_63_1377" style="mask-type:luminance" maskUnits="userSpaceOnUse" x="4" y="4" width="110" height="110">
<path d="M59.0007 108.167C65.4586 108.175 71.8544 106.907 77.8207 104.436C83.787 101.964 89.2061 98.3381 93.7664 93.7657C98.3389 89.2053 101.965 83.7862 104.436 77.82C106.908 71.8537 108.176 65.4578 108.167 58.9999C108.176 52.5421 106.908 46.1462 104.436 40.18C101.965 34.2137 98.3388 28.7946 93.7664 24.2342C89.2061 19.6617 83.787 16.0356 77.8207 13.5642C71.8544 11.0928 65.4586 9.8249 59.0007 9.83326C52.5428 9.82503 46.147 11.093 40.1807 13.5644C34.2145 16.0358 28.7954 19.6619 24.2349 24.2342C19.6626 28.7946 16.0366 34.2137 13.5652 40.18C11.0938 46.1462 9.82579 52.5421 9.83403 58.9999C9.82566 65.4578 11.0936 71.8537 13.565 77.82C16.0364 83.7862 19.6625 89.2053 24.2349 93.7657C28.7954 98.338 34.2145 101.964 40.1807 104.435C46.147 106.907 52.5428 108.175 59.0007 108.167Z" fill="white" stroke="white" stroke-width="9.83333" stroke-linejoin="round"/>
<path d="M39.334 59L54.084 73.75L83.584 44.25" stroke="black" stroke-width="9.83333" stroke-linecap="round" stroke-linejoin="round"/>
</mask>
<g mask="url(#mask0_63_1377)">
<path d="M0 -1.52588e-05H118V118H0V-1.52588e-05Z" fill="#038D4B"/>
</g>
</svg>
