<svg width="40" height="40" viewBox="0 0 40 40" fill="none" xmlns="http://www.w3.org/2000/svg">
<path d="M1.96936 20C3.53688 11.4663 11.0135 5 20.0005 5C28.9873 5 36.464 11.4663 38.0315 20C36.464 28.5337 28.9873 35 20.0005 35C11.0135 35 3.53688 28.5337 1.96936 20ZM20.0005 28.3333C24.6028 28.3333 28.3338 24.6023 28.3338 20C28.3338 15.3976 24.6028 11.6667 20.0005 11.6667C15.398 11.6667 11.6671 15.3976 11.6671 20C11.6671 24.6023 15.398 28.3333 20.0005 28.3333ZM20.0005 25C17.239 25 15.0004 22.7615 15.0004 20C15.0004 17.2385 17.239 15 20.0005 15C22.7618 15 25.0005 17.2385 25.0005 20C25.0005 22.7615 22.7618 25 20.0005 25Z" fill="#6A0E35"/>
</svg>
